<?xml version="1.0" encoding="UTF-8" standalone="no"?>
<!-- Created with Inkscape (http://www.inkscape.org/) -->

<svg
   width="210mm"
   height="210mm"
   viewBox="0 0 210 210"
   version="1.1"
   id="svg5"
   inkscape:version="1.2 (dc2aedaf03, 2022-05-15)"
   sodipodi:docname="drawing.svg"
   xmlns:inkscape="http://www.inkscape.org/namespaces/inkscape"
   xmlns:sodipodi="http://sodipodi.sourceforge.net/DTD/sodipodi-0.dtd"
   xmlns="http://www.w3.org/2000/svg"
   xmlns:svg="http://www.w3.org/2000/svg">
  <sodipodi:namedview
     id="namedview7"
     pagecolor="#ffffff"
     bordercolor="#000000"
     borderopacity="0.25"
     inkscape:showpageshadow="2"
     inkscape:pageopacity="0.0"
     inkscape:pagecheckerboard="0"
     inkscape:deskcolor="#d1d1d1"
     inkscape:document-units="mm"
     showgrid="false"
     inkscape:zoom="1.7886088"
     inkscape:cx="314.76978"
     inkscape:cy="420.15895"
     inkscape:window-width="1718"
     inkscape:window-height="1368"
     inkscape:window-x="-7"
     inkscape:window-y="0"
     inkscape:window-maximized="0"
     inkscape:current-layer="layer1" />
  <defs
     id="defs2" />
  <g
     inkscape:label="Layer 1"
     inkscape:groupmode="layer"
     id="layer1">
    <path
       id="path2479"
       style="fill:#f0b57a;fill-opacity:1;stroke-width:0.279556"
       d="m 100.14531,107.88489 -20.703647,0.56224 c 0,0 1.744566,14.87944 -0.645439,18.21904 -2.634479,3.68121 -4.003203,3.69196 -4.003203,3.69196 l -11.171065,11.05649 36.441184,-0.28112 c -2.1e-4,-0.19968 -0.003,-0.38549 -0.003,-0.58652 v -23.42441 c 0,-3.32182 0.0318,-6.4288 0.0847,-9.23768 z"
       sodipodi:nodetypes="ccscccssc" />
    <path
       id="path2479-2"
       style="fill:#f0b57a;fill-opacity:1;stroke-width:0.279556"
       d="m 99.89639,109.29421 20.70364,0.56224 c 0,0 -1.74457,14.87944 0.64544,18.21904 2.63448,3.68121 5.92625,3.47007 5.92625,3.47007 l 9.24802,11.27838 -36.44118,-0.28112 c 2.1e-4,-0.19968 0.003,-0.38549 0.003,-0.58652 v -23.42441 c 0,-3.32182 -0.0318,-6.4288 -0.0847,-9.23768 z" />
    <path
       id="rect2038"
       style="fill:#095478;fill-opacity:1;stroke-width:0.311763"
       d="m 56.540271,129.55776 c -12.015909,0 -21.689633,13.4313 -21.689633,30.11455 v 18.46965 H 166.43277 v -18.46965 c 0,-16.68325 -9.67321,-30.11455 -21.68912,-30.11455 z" />
    <rect
       style="fill:#f0b57a;fill-opacity:1;stroke-width:0.260247"
       id="rect8023"
       width="14.886631"
       height="15.84384"
       x="62.926033"
       y="77.801659"
       rx="4.8719893"
       ry="8.6692705" />
    <rect
       style="fill:#f0b57a;fill-opacity:1;stroke-width:0.260247"
       id="rect8023-8"
       width="14.886631"
       height="15.84384"
       x="122.60789"
       y="77.639565"
       rx="4.8719893"
       ry="8.6692705" />
    <path
       id="path4889"
       style="fill:#f0b57a;fill-opacity:1;stroke-width:0.184564"
       d="m 76.864459,129.38652 c -0.01125,0.24085 -0.611094,0.0751 -0.616144,0.31616 1.03e-4,14.13473 10.422745,25.59316 23.279758,25.59327 12.857197,1.7e-4 23.280127,-11.45834 23.280227,-25.59327 -3.4e-4,-0.24103 -0.0391,0.0476 -0.0456,-0.19332 z"
       sodipodi:nodetypes="cccccc" />
    <path
       id="path2479-2-3"
       style="fill:#e8a562;fill-opacity:1;stroke-width:0.279556"
       d="m 99.536917,108.75272 21.268593,0.20915 c 0,0 -2.08556,14.65174 0.0805,18.25435 1.24286,2.06714 2.01362,2.3748 2.01362,2.3748 0,0 -0.16836,2.85452 -0.36606,4.28536 -0.18298,1.32435 -0.39309,2.65553 -0.78975,3.93226 -0.38501,1.23923 -0.97892,2.40494 -1.53126,3.57918 -0.46402,0.98647 -1.49595,2.90829 -1.49595,2.90829 l -2.04043,2.2734 -6.66594,0.0136 c 0,0 -3.77946,4.05051 -9.88746,3.72869 -4.924674,-0.25948 -8.610865,-4.29876 -8.63173,-6.04436 l -0.05944,-4.97269 18.17485,-0.0273 -0.0839,-8.83263 -9.878582,-0.0602 c 0,0 -0.08012,-20.21745 -0.106573,-21.62189 z"
       sodipodi:nodetypes="ccscssscccsscccccc" />
    <ellipse
       style="fill:#f9d6b3;fill-opacity:1;stroke-width:0.260247"
       id="path70"
       cx="100.32401"
       cy="90.338219"
       rx="32.209259"
       ry="35.573906" />
    <ellipse
       style="fill:#f9d6b3;fill-opacity:1;stroke-width:0.260247"
       id="path70-4"
       cx="100.324"
       cy="72.700745"
       rx="32.209259"
       ry="35.573906" />
    <rect
       style="fill:#f9d6b3;fill-opacity:1;stroke-width:0.202827"
       id="rect124"
       width="64.41851"
       height="24.513115"
       x="68.114738"
       y="68.814514"
       ry="0" />
    <path
       style="fill:#f3c292;fill-opacity:1;stroke-width:0.260247"
       d="m 119.81196,54.42081 -0.27066,11.658675 h -15.69863 v 9.267154 h 13.80397 v 8.370329 l 4.82342,0.122655 c 0,0 3.27799,1.045447 4.11211,2.641105 0.39493,0.755511 0.77738,2.235401 0.77738,3.107791 0,1.195762 -0.23603,2.061103 -0.77738,3.096663 -0.88417,1.6914 -4.59428,2.561623 -4.59428,2.561623 l -21.93456,0.367967 v 20.387758 h 8.39066 l 0.0556,8.80733 c 0,0 5.57663,-1.91001 8.5227,-3.9131 1.8142,-1.23351 3.88914,-3.092 5.46013,-4.68129 1.64605,-1.66521 2.81736,-3.09658 4.15013,-5.07429 1.42137,-2.10916 2.7182,-5.02814 3.51534,-7.5056 1.05337,-3.27382 2.04557,-6.769702 2.32992,-10.229864 0.37524,-4.566066 0.32619,-13.873913 0.32619,-13.873913 l 0.812,-26.904636 z"
       id="path8323"
       sodipodi:nodetypes="cccccccssscccccsssssccc" />
    <path
       style="fill:#382512;fill-opacity:1;stroke-width:0.260247"
       d="m 73.257401,84.31485 h -5.188716 l -0.495269,-6.277749 c 0,0 -1.461687,-0.119677 -3.247992,-2.092583 -2.679457,-2.959359 -2.435995,-10.462913 -2.435995,-10.462913 0,0 -0.439417,-17.780088 0.541333,-21.822648 1.335762,-5.505888 12.072137,-7.335823 12.072137,-7.335823 0,0 3.317906,-6.131342 6.077189,-7.583071 5.702483,-3.00022 12.889418,-2.616171 19.20259,-2.391523 5.895262,0.209778 11.696572,1.63076 17.322612,3.587285 4.95125,1.721858 9.92028,4.29534 13.6453,8.288178 3.54494,3.799809 6.19746,8.845011 7.5268,14.099728 0.99569,3.935824 -0.0192,11.858869 -0.20056,17.004315 -0.18126,5.145446 0.22141,3.73841 -1.6941,6.018592 -1.25451,1.493355 -3.30814,2.391522 -3.30814,2.391522 l -0.49527,5.978808 -4.64739,0.29894 V 57.111274 c 0,0 -7.74346,0.616255 -9.74396,-0.298941 -2.1808,-0.997675 -2.82653,-4.532719 -5.00733,-5.530395 -1.4587,-0.66733 -3.27795,-0.667329 -4.73665,0 -1.67981,0.76848 -3.3864,2.320188 -3.85699,4.2599 -0.43734,1.802609 1.31197,5.407825 1.31197,5.407825 0,0 -5.3482,-0.470702 -7.364428,-2.179424 -1.726794,-1.463431 -3.815889,-3.847903 -5.700859,-5.049876 -2.056995,-1.311667 -4.3899,-1.601787 -6.584312,-0.59788 -1.611612,0.737285 -3.171476,2.15393 -4.783088,2.891216 -2.778068,1.27092 -8.208882,0.597881 -8.208882,0.597881 z"
       id="path5719"
       sodipodi:nodetypes="cccscscsssssssccccsssscsssscc" />
    <rect
       style="fill:#462a19;fill-opacity:1;stroke-width:0.260247"
       id="rect6259"
       width="7.8493142"
       height="8.6692705"
       x="81.761917"
       y="75.645576"
       rx="0.81199807"
       ry="8.6692705" />
    <rect
       style="fill:#c84968;fill-opacity:1;stroke-width:0.377066"
       id="rect6259-2"
       width="17.051962"
       height="8.3772736"
       x="91.53965"
       y="100.4036"
       rx="0"
       ry="8.3772736" />
    <rect
       style="fill:#5a3b1d;fill-opacity:1;stroke-width:0.260247"
       id="rect6259-1"
       width="7.8493142"
       height="8.6692705"
       x="65.014259"
       y="64.435318"
       rx="0"
       ry="8.6692705" />
    <rect
       style="fill:#5a3b1d;fill-opacity:1;stroke-width:0.260247"
       id="rect6259-1-9"
       width="7.8493142"
       height="8.6692705"
       x="128.09683"
       y="64.734253"
       rx="0"
       ry="8.6692705" />
    <rect
       style="fill:#5a3b1d;fill-opacity:1;stroke-width:0.260247"
       id="rect6259-1-7"
       width="7.8493142"
       height="8.6692705"
       x="65.272751"
       y="51.28194"
       rx="0"
       ry="8.6692705" />
    <rect
       style="fill:#462a19;fill-opacity:1;stroke-width:0.260247"
       id="rect6259-9"
       width="7.8493142"
       height="8.6692705"
       x="111.55665"
       y="74.898232"
       rx="0.81199807"
       ry="8.6692705" />
    <path
       style="fill:#5a3b1d;fill-opacity:1;stroke-width:0.260247"
       d="m 88.685366,44.555779 c 0,0 5.359846,0.837548 7.57865,2.391522 1.619908,1.134527 3.789314,4.783047 3.789314,4.783047 0,0 2.5239,-3.733351 4.33067,-4.783047 2.19257,-1.273839 4.84892,-1.827036 7.30798,-1.494702 2.16417,0.29248 4.06324,1.791534 5.95466,2.989406 1.62863,1.031449 2.81188,2.960012 4.60132,3.587283 3.78376,1.32637 11.9093,0 11.9093,0 l -0.26439,-7.452681 c 0,0 -6.22531,0.828658 -9.20264,0.0069 -3.52847,-0.97382 -5.0121,-4.746294 -8.54797,-5.68681 -3.77579,-1.004332 -7.45248,-1.362847 -11.24208,-0.424108 -1.14445,0.283499 -4.17332,1.348701 -4.17332,1.348701 l -9.618073,-3.886207 z"
       id="path7221"
       sodipodi:nodetypes="cscssssccsssccc" />
    <path
       style="fill:#e8a562;fill-opacity:1;stroke-width:0.260247"
       d="M 104.08488,75.620127 V 95.475942 H 91.130274 v -6.569937 l 7.402629,0.145998 V 75.474129 Z"
       id="path11096" />
    <path
       style="fill:#5a3b1d;fill-opacity:1;stroke-width:0.260247"
       d="m 73.182174,83.927323 0.234667,14.614591 11.632704,7.299936 7.931386,9.63591 1.982848,-4.08796 h 10.971741 l 2.37942,3.79595 6.47731,-10.0739 12.69021,-10.511898 0.39658,-10.8039 4.72912,-0.136955 c 0,0 0.1772,7.094505 -0.14038,10.19277 -0.36268,3.538024 -0.96954,6.602113 -2.07713,9.946003 -1.03087,3.11223 -2.61474,6.03087 -4.49446,8.61391 -2.12982,2.92673 -4.64119,5.62082 -7.53482,7.59193 -3.77505,2.57153 -5.06057,3.73173 -9.38547,4.81797 -2.11236,0.53053 -6.17434,1.16528 -8.33919,1.07857 -2.584559,-0.10352 -6.679589,-0.47914 -9.152915,-1.31399 -3.864423,-1.30442 -7.405499,-3.11166 -10.664326,-5.75054 -3.093227,-2.50477 -5.72208,-5.78266 -7.799197,-9.34391 -1.839257,-3.15343 -3.081492,-6.74417 -3.965695,-10.3659 -0.543538,-2.226359 -0.793139,-6.861936 -0.793139,-6.861936 l -0.26438,-8.321924 z"
       id="path11824"
       sodipodi:nodetypes="cccccccccccssssssssssccc" />
    <path
       id="path11949"
       style="fill:#5a3b1d;fill-opacity:1;stroke-width:0.312295"
       d="m 100.11416,95.329841 c 0.003,0.11541 0.005,0.230665 0.005,0.34722 v 5.278279 l 12.16163,4.88671 0.92525,-9.040532 -8.98882,-1.471677 z" />
    <path
       id="path11949-2"
       style="fill:#5a3b1d;fill-opacity:1;stroke-width:0.312295"
       d="m 100.26521,95.36678 c -0.003,0.115409 -0.005,0.230665 -0.005,0.34722 v 5.27827 l -12.161568,4.88672 -0.925236,-9.040533 8.988777,-1.471677 z" />
    <rect
       style="fill:#5a3b1d;fill-opacity:1;stroke-width:0.346802"
       id="rect6259-1-2"
       width="13.951017"
       height="8.661644"
       x="69.045433"
       y="72.044922"
       rx="0"
       ry="8.661644"
       transform="matrix(0.99404259,-0.10899234,0.08952451,0.99598462,0,0)" />
    <rect
       style="fill:#5a3b1d;fill-opacity:1;stroke-width:0.346802"
       id="rect6259-1-2-2"
       width="13.951017"
       height="8.661644"
       x="-130.90453"
       y="50.003357"
       rx="0"
       ry="8.661644"
       transform="matrix(-0.99404259,-0.10899233,-0.0895245,0.99598462,0,0)" />
    <path
       style="fill:#0b6b98;fill-opacity:1;stroke-width:0.254543"
       d="m 66.432666,132.78807 c 0,0 -4.826033,-0.23246 -7.174651,0.22136 -2.605173,0.5034 -5.156331,1.58769 -7.324127,3.11772 -1.923348,1.3575 -4.301924,3.31118 -5.712154,5.19621 -1.797887,2.4032 -2.718836,4.88526 -3.704577,7.72006 -1.14725,3.29926 -1.061483,6.91092 -1.345247,10.39241 -0.358006,4.39237 -0.293573,12.59383 -0.293573,12.59383 l 9.26726,-0.0838 c 0,0 -0.08125,-7.47704 0.293573,-11.47078 0.280601,-2.98979 0.265306,-6.10575 1.345247,-8.90777 0.939801,-2.43841 1.952265,-4.47969 3.77996,-6.34747 1.273247,-1.30117 3.323184,-2.69388 5.038885,-3.30262 1.883442,-0.66826 5.978876,-0.44539 5.978876,-0.44539 z"
       id="path12132"
       sodipodi:nodetypes="csssssccsssscc" />
  </g>
</svg>
